<svg xmlns="http://www.w3.org/2000/svg" xmlns:xlink="http://www.w3.org/1999/xlink" width="500" zoomAndPan="magnify" viewBox="0 0 375 374.999991" height="500" preserveAspectRatio="xMidYMid meet" version="1.0"><defs><clipPath id="2256e3a482"><path d="M 36.113281 35.351562 L 339.113281 35.351562 L 339.113281 339.851562 L 36.113281 339.851562 Z M 36.113281 35.351562 " clip-rule="nonzero"/></clipPath></defs><g clip-path="url(#2256e3a482)"><path fill="#ffffff" d="M 294.957031 79.601562 C 266.464844 51.050781 228.5625 35.351562 188.203125 35.351562 C 105.050781 35.351562 37.371094 103.03125 37.371094 186.230469 C 37.371094 212.808594 44.335938 238.804688 57.527344 261.648438 L 36.113281 339.851562 L 116.109375 318.859375 C 138.171875 330.875 162.988281 337.242188 188.183594 337.242188 L 188.246094 337.242188 C 271.398438 337.242188 339.136719 269.566406 339.136719 186.367188 C 339.136719 146.039062 323.433594 108.164062 294.945312 79.625 Z M 188.246094 311.789062 C 165.710938 311.789062 143.640625 305.714844 124.375 294.292969 L 119.78125 291.550781 L 72.3125 303.980469 L 84.996094 257.714844 L 82.023438 252.964844 C 69.402344 233.03125 62.8125 209.96875 62.8125 186.242188 C 62.8125 117.085938 119.078125 60.800781 188.3125 60.800781 C 221.792969 60.800781 253.335938 73.890625 276.996094 97.550781 C 300.667969 121.28125 313.683594 152.742188 313.683594 186.28125 C 313.628906 255.484375 257.367188 311.769531 188.234375 311.769531 Z M 257 217.824219 C 253.253906 215.917969 234.691406 206.828125 231.25 205.566406 C 227.804688 204.304688 225.292969 203.660156 222.734375 207.472656 C 220.238281 211.21875 212.992188 219.730469 210.78125 222.277344 C 208.570312 224.773438 206.382812 225.132812 202.636719 223.226562 C 198.890625 221.320312 186.691406 217.34375 172.308594 204.496094 C 161.117188 194.507812 153.53125 182.140625 151.320312 178.394531 C 149.109375 174.648438 151.074219 172.566406 152.992188 170.726562 C 154.730469 169.046875 156.746094 166.328125 158.644531 164.125 C 160.550781 161.914062 161.144531 160.375 162.398438 157.820312 C 163.660156 155.324219 163.042969 153.113281 162.09375 151.21875 C 161.144531 149.320312 153.578125 130.757812 150.503906 123.199219 C 147.476562 115.8125 144.316406 116.84375 141.996094 116.714844 C 139.785156 116.605469 137.285156 116.605469 134.796875 116.605469 C 132.304688 116.605469 128.195312 117.546875 124.746094 121.304688 C 121.300781 125.050781 111.535156 134.210938 111.535156 152.765625 C 111.535156 171.324219 125.03125 189.226562 126.933594 191.777344 C 128.839844 194.269531 153.523438 232.394531 191.339844 248.703125 C 200.324219 252.5625 207.34375 254.890625 212.816406 256.679688 C 221.859375 259.53125 230.0625 259.117188 236.550781 258.160156 C 243.804688 257.09375 258.859375 249.054688 262.011719 240.25 C 265.167969 231.4375 265.167969 223.898438 264.222656 222.339844 C 263.328125 220.65625 260.835938 219.730469 257.023438 217.800781 Z M 257 217.824219 " fill-opacity="1" fill-rule="evenodd"/></g></svg>